<svg xmlns="http://www.w3.org/2000/svg"
    xmlns:xlink="http://www.w3.org/1999/xlink" viewBox="-53 10 240 50" width="100%" height="100%" fill="#000">
    <g transform="translate(-55, 8.77) scale(1.633)">
        <path d="M10.9494 12.5631L3.68392 5.29767C2.96078 4.57454 3.47324 3.3418 4.4953 3.3418H11.7608C12.3928 3.3418 12.9081 3.85425 12.9081 4.48913V11.7546C12.9053 12.7738 11.6725 13.2863 10.9494 12.5631Z"></path>
        <path d="M3.68401 27.6157L10.9495 20.3502C11.6726 19.627 12.9054 20.1395 12.9054 21.1616V28.427C12.9054 29.0591 12.3929 29.5744 11.758 29.5744H4.49255C3.47334 29.5715 2.96088 28.3388 3.68401 27.6157Z"></path>
        <path d="M26.6989 12.5631L19.4334 5.29767C18.7103 4.57454 19.2228 3.3418 20.2448 3.3418H27.5103C28.1423 3.3418 28.6576 3.85425 28.6576 4.48913V11.7546C28.6548 12.7738 27.4192 13.2863 26.6989 12.5631Z"></path>
        <path d="M19.4335 27.6157L26.699 20.3502C27.4221 19.627 28.6549 20.1395 28.6549 21.1616V28.427C28.6549 29.0591 28.1424 29.5744 27.5075 29.5744H20.2421C19.2228 29.5715 18.7104 28.3388 19.4335 27.6157Z"></path>
        <path d="M21.2158 11.2697V21.5444C21.2158 22.5665 19.9802 23.0761 19.2599 22.3558L14.1211 17.217C13.6741 16.77 13.6741 16.0441 14.1211 15.5971L19.2599 10.4583C19.9802 9.738 21.2158 10.2476 21.2158 11.2697Z"></path>
    </g>
    <path d="M103.969 13.121c-.008.121.043.2.152.234.734.989 1.031 2.106.895 3.348-.254 1.98-1.305 3.344-3.145 4.09a5.18 5.18 0 0 1-3.492-.078 3.779 3.779 0 0 1-1.086-.66c-.035-.11-.113-.164-.234-.157-1.403-1.277-1.934-2.863-1.59-4.75.246-1.226.879-2.187 1.902-2.882.117.007.195-.047.23-.157.028-.066.079-.09.157-.078.117.008.195-.047.234-.156 1.805-.828 3.54-.688 5.2.43.273.261.53.535.777.816Zm71.25.078c-.004.121.047.2.156.235-.004.12.047.195.156.234.914 1.668.93 3.355.04 5.062-1.512 2.13-3.52 2.79-6.016 1.985a3.402 3.402 0 0 1-1.164-.738c-.04-.11-.118-.165-.235-.157-1.054-.965-1.597-2.172-1.629-3.62.008-1.102.344-2.075 1.008-2.923.11-.035.16-.113.156-.234a2.75 2.75 0 0 1 .543-.543c.118.004.196-.047.235-.156 1.304-.961 2.754-1.235 4.344-.817.988.305 1.789.864 2.406 1.672Zm0 0" style="stroke: none; fill-rule: evenodd; fill-opacity: 1;"></path>
    <path d="M151.16 54.242c.477.078.969.102 1.473.078v2.18c-3.41.426-6.828.813-10.246 1.168v-4.594a.638.638 0 0 0-.309.04c-2.289 3.495-5.52 5-9.703 4.515-2.5-.242-4.7-1.164-6.598-2.766-.035-.11-.113-.16-.234-.152a.909.909 0 0 1-.309-.313c-.035-.109-.113-.16-.234-.156-2.676-2.62-4.242-5.816-4.695-9.578a18.529 18.529 0 0 1 1.32-9.27c.336-.68.707-1.331 1.125-1.945.11-.039.16-.117.156-.234a.54.54 0 0 1 .235-.313c.109-.035.16-.113.152-.234 0-.05.027-.074.078-.074.11-.04.16-.117.156-.235a.535.535 0 0 1 .23-.234c.114-.04.165-.113.157-.234.39-.442.8-.856 1.242-1.246a.372.372 0 0 0 .313-.235 1.19 1.19 0 0 1 .543-.465c.117.004.195-.047.23-.156a.543.543 0 0 1 .313-.234c.117.004.195-.047.23-.157.121.008.2-.046.235-.156 2.949-1.902 6.183-2.719 9.703-2.453 1.972.07 3.847.523 5.625 1.363.054-2.906.054-5.812 0-8.722.047-.918-.25-1.696-.891-2.336-.039-.11-.113-.16-.234-.157a5.68 5.68 0 0 0-1.786-.347c-1.601-.04-3.207-.055-4.812-.04a11.92 11.92 0 0 1 .078-1.87c2.567-.508 5.129-1.04 7.684-1.598a42.973 42.973 0 0 0 3.492-.934c.648-.039 1.293-.05 1.941-.039-.05 1.196-.09 2.387-.117 3.582a4193.79 4193.79 0 0 0 0 35.746c.05 1.297.688 2.141 1.902 2.532a11.07 11.07 0 0 0 1.555.273Zm-11.332-23.441c.035.11.113.16.23.156a.24.24 0 0 0 .157.156c.035.11.113.16.234.157a6.6 6.6 0 0 1 1.82 3.816c.114 4.957.153 9.914.118 14.871a2.77 2.77 0 0 0-.543.547.497.497 0 0 0-.23.234c-.122-.008-.2.047-.235.157-.05 0-.078.023-.078.078-.117-.008-.196.043-.235.156a.52.52 0 0 0-.23.152c-.121-.004-.195.047-.234.157-3.075 1.558-6.176 1.62-9.313.195a10.38 10.38 0 0 1-2.719-2.063c.008-.12-.043-.199-.152-.234-1.867-2.461-2.797-5.25-2.797-8.371-.047-3 .82-5.684 2.602-8.063 2.859-3.015 6.289-3.937 10.285-2.761.457.175.898.398 1.32.66Zm0 0" style="stroke: none; fill-rule: evenodd; fill-opacity: 1;"></path>
    <path d="M13.621 14.137H43.04V24.96c-.727.023-1.453 0-2.176-.078a14.671 14.671 0 0 0-.734-3.895 6.32 6.32 0 0 0-1.594-2.258c-.035-.109-.113-.164-.23-.156-.04-.11-.114-.16-.235-.156a10.442 10.442 0 0 0-4.191-1.05c-3.129-.04-6.262-.052-9.39-.04v16.586c2.613.016 5.226 0 7.84-.035a4.67 4.67 0 0 0 2.87-1.211c.11-.035.16-.113.156-.23a7.108 7.108 0 0 0 .93-3.274c.078-.453.102-.918.078-1.402h2.172v15.5h-2.172c.024-.407 0-.793-.078-1.168a7.195 7.195 0 0 0-1.047-3.426 3.761 3.761 0 0 0-2.445-1.363c-.488-.082-.98-.133-1.477-.157-2.273-.039-4.55-.05-6.828-.039-.011 4.594 0 9.188.04 13.786-.005 1.445.679 2.34 2.054 2.687 2.355.05 4.711.05 7.066 0a9.787 9.787 0 0 0 3.18-.898c.121.007.195-.047.234-.157.282-.203.567-.41.852-.62.121.003.2-.048.234-.157.313-.34.625-.676.93-1.012.11-.039.164-.117.156-.234 0-.05.028-.078.078-.078.11-.035.16-.114.157-.235a26.261 26.261 0 0 0 2.172-4.593h2.328v.234a511.46 511.46 0 0 1-2.407 11.059c-9.312.156-18.624.207-27.94.156V54.94c.378.028.741 0 1.085-.078a5.699 5.699 0 0 0 2.797-.855.492.492 0 0 0 .387-.39c0-.052.027-.075.078-.075.11-.04.16-.117.156-.234.223-.52.367-1.075.426-1.637.05-10.695.05-21.39 0-32.086-.098-1.73-.988-2.758-2.68-3.074a18.634 18.634 0 0 0-1.86-.196.534.534 0 0 0-.39-.078Zm0 0" style="stroke: none; fill-rule: evenodd; fill-opacity: 1;"></path>
    <path d="M101.406 26.906h2.715v.469c-.012 7.684 0 15.367.04 23.05.038.86.26 1.665.66 2.415-.005.12.046.195.156.234 1.117 1.078 2.464 1.653 4.035 1.715 1.36.074 2.73.102 4.113.074v2.184H88.832v-2.258c1.758.012 3.52 0 5.277-.039a8.111 8.111 0 0 0 2.72-.742c.116.008.194-.047.23-.156.12.007.199-.047.234-.157.18-.23.387-.441.621-.62.11-.04.16-.114.156-.235.399-.75.618-1.555.657-2.414.054-5.399.054-10.801 0-16.2-.094-1.496-.883-2.34-2.368-2.53-2.507-.11-5.015-.15-7.527-.118v-1.945a104.037 104.037 0 0 0 12.574-2.727Zm71.176 0h2.715v1.012c-.012 7.453 0 14.902.039 22.352-.016 2.015.902 3.375 2.754 4.09.637.187 1.285.32 1.941.39 1.45.04 2.899.05 4.348.04v2.257h-24.293v-2.184c1.668.028 3.324 0 4.965-.074a6.725 6.725 0 0 0 3.492-1.172.691.691 0 0 0 .469-.465 4.94 4.94 0 0 0 .89-2.57c.051-5.477.051-10.957 0-16.434-.12-1.418-.886-2.238-2.289-2.453-2.508-.11-5.02-.148-7.527-.117v-1.867a.355.355 0 0 0 .309-.078c4.105-.7 8.171-1.61 12.187-2.727Zm0 0" style="stroke: none; fill-rule: evenodd; fill-opacity: 1;"></path>
    <path d="M62.984 27.762v2.183c-.828-.015-1.656 0-2.48.04-1.461.292-2.121 1.187-1.98 2.683.058.535.19 1.059.386 1.559 2.262 5.73 4.5 11.464 6.715 17.21.05.208.102.208.156 0a2057.513 2057.513 0 0 1 6.637-16.82 5.91 5.91 0 0 0 .465-3.117c-.188-.68-.613-1.133-1.281-1.36a6.654 6.654 0 0 0-.778-.195 20.575 20.575 0 0 0-2.558-.078v-2.105h12.882v2.105c-.402-.027-.793 0-1.164.078-1.199.23-2.144.852-2.832 1.867l-.699 1.247c-3.25 7.968-6.496 15.941-9.742 23.91a64.523 64.523 0 0 1-4.348.078 3974.811 3974.811 0 0 1-9.582-23.598 7.364 7.364 0 0 0-1.824-2.804c-.039-.11-.117-.16-.234-.157a5.417 5.417 0 0 0-1.707-.543c-.477-.078-.97-.105-1.477-.078v-2.105Zm0 0" style="stroke: none; fill-rule: evenodd; fill-opacity: 1;"></path>
</svg>